<svg width="410" height="80" xmlns="http://www.w3.org/2000/svg" fill="none">
 <g>
  <title>Layer 1</title>
  <path d="m49.976,57.31931c-1.2852,0.734 -15.484,8.9564 -15.484,8.9564c-2.9408,1.6048 -5.9333,1.6596 -8.8638,0.0003c-5.4348,-3.0775 -10.8554,-6.1818 -16.23353,-9.3565c-2.88109,-1.7005 -4.37457,-4.309 -4.38204,-7.6842c-0.0137,-6.1855 -0.02108,-12.3713 0.0036,-18.5567c0.0135,-3.3763 1.55107,-5.9596 4.43409,-7.6553c5.33778,-3.13935 10.71138,-6.21918 16.09818,-9.27435c2.981,-1.69063 6.0198,-1.65541 8.999,0.04805c5.2398,2.99612 10.4702,6.00902 15.6945,9.0319c3.1772,1.8384 4.7793,4.565 4.7508,8.2772c-0.0445,5.8706 -0.0623,11.7424 0.0062,17.6127c0.0457,3.9152 -1.665,6.6935 -5.023,8.6005zm-30.8015,-35.5461c-2.4542,1.4181 -4.8938,2.8624 -7.3672,4.2463c-2.0196,1.13 -3.03245,2.7573 -3.0117,5.1084c0.04722,5.3463 0.01203,10.6933 0.0186,16.0401c0.00048,0.382 0.0683,0.7637 0.10483,1.1457c0.11477,0.0645 0.22954,0.1293 0.34432,0.1941c0.35785,-0.4443 0.67838,-0.9255 1.07925,-1.327c5.34,-5.3475 10.6909,-10.6843 16.0397,-16.0231c2.9917,-2.9859 4.2282,-2.9946 7.175,-0.0535c5.386,5.3758 10.7712,10.7525 16.1605,16.1253c0.3895,0.3885 0.809,0.7472 1.293,1.192c0.0875,-0.3068 0.161,-0.4445 0.161,-0.5822c0.0032,-5.766 0.0065,-11.5321 -0.0065,-17.2981c-0.0045,-1.9721 -1,-3.3758 -2.6615,-4.3365c-5.225,-3.0213 -10.4611,-6.0237 -15.6868,-9.0436c-1.9,-1.09795 -3.7665,-1.09585 -5.6645,0.01885c-2.5797,1.5151 -5.1809,2.99375 -7.978,4.59325zm3.4259,18.5215c-3.5596,3.5548 -7.1235,7.1051 -10.6765,10.6661c-1.4458,1.4492 -1.3465,2.2922 0.3859,3.2947c4.173,2.4147 8.3501,4.8228 12.537,7.2135c0.4467,0.2553 0.9695,0.378 1.5125,0.5835c0.088,-0.3923 0.1634,-0.5457 0.1462,-0.6882c-0.0435,-0.3618 -0.1255,-0.7196 -0.1975,-1.0778c-0.6905,-3.429 -0.861,-6.8967 0.11,-10.261c0.8665,-3.0012 2.1205,-5.8907 3.189,-8.8347c0.756,-2.0825 1.364,-4.1958 0.7982,-6.4365c-0.3472,-1.3761 -0.7334,-1.4866 -1.7429,-0.4955c-1.982,1.9455 -3.9377,3.9177 -6.0619,6.0359z" fill="#ffffff" id="svg_10"/>
  <text style="cursor: move;" transform="matrix(1.43295 0 0 1.47728 -40.8402 -27.8454)" stroke="null" font-weight="bold" xml:space="preserve" text-anchor="start" font-family="Noto Sans JP" font-size="30" id="svg_1" y="57" x="80" stroke-width="0" fill="#ffffff">ilzzo-aws-admin</text>
 </g>

</svg>